<svg width="179" height="46" viewBox="0 0 179 46" fill="none" xmlns="http://www.w3.org/2000/svg">
<path d="M39.2858 32.1245L32.5895 20.4713C31.8068 19.1668 30.4154 18.4711 28.937 18.5581C27.4586 18.4711 26.0672 19.2538 25.2845 20.4713L18.5883 32.1245C17.5447 34.0377 18.2404 36.3857 20.1536 37.4293C21.9799 38.4729 24.3279 37.8641 25.4584 36.0379L29.024 29.7764L32.5895 36.0379C33.72 37.8641 36.155 38.4729 37.9813 37.3423C39.7206 36.2988 40.3293 34.0377 39.2858 32.1245Z" fill="#07BD81"/>
<path d="M24.5879 18.5583C25.5445 17.0799 27.1968 16.2102 28.9361 16.2972C30.6754 16.2102 32.3277 17.0799 33.2843 18.5583L40.8502 31.6899C45.7202 25.0806 44.3288 15.7754 37.7195 10.9054C31.1102 6.0354 21.805 7.42683 16.935 14.0361C13.0217 19.254 13.0217 26.472 16.935 31.6899L24.5879 18.5583Z" fill="#2D81F7"/>
<path d="M38.1538 30.2116C35.8057 26.2112 29.8922 28.2984 28.9355 29.8637L32.5011 36.1252C33.6316 37.9514 36.0666 38.5602 37.8929 37.4296C39.7191 36.2991 40.3279 34.038 39.2843 32.1248L38.1538 30.2116Z" fill="#0BAA71"/>
<path d="M62.5047 25.3413C62.5917 25.3413 62.6787 25.3413 62.7656 25.4282L64.4179 26.037C64.6788 26.1239 64.7658 26.2979 64.7658 26.4718C64.7658 26.5588 64.6788 26.7327 64.6788 26.8197C63.9831 27.7763 63.1135 28.6459 62.0699 29.1677C61.0263 29.6895 59.8088 30.0373 58.5913 30.0373C56.0694 30.0373 53.7213 28.7329 52.3299 26.5588C51.0254 24.3847 51.0254 21.7757 52.3299 19.6016C52.9387 18.558 53.8953 17.6884 54.9388 17.0797C56.0694 16.4709 57.2869 16.123 58.5044 16.123C59.7219 16.123 60.8524 16.4709 61.896 16.9927C62.9395 17.5145 63.8092 18.2972 64.5049 19.3407C64.5919 19.4277 64.5919 19.5147 64.5919 19.6016C64.5919 19.7755 64.5049 19.9495 64.244 20.0364L62.5917 20.6452C62.5047 20.6452 62.4178 20.7322 62.3308 20.7322C62.1569 20.7322 61.9829 20.6452 61.809 20.4713C61.3742 19.9495 60.8524 19.5147 60.2437 19.2538C59.7219 18.9929 59.0262 18.8189 58.4174 18.8189C57.6347 18.8189 56.939 18.9929 56.2433 19.4277C55.6346 19.7755 55.0258 20.3843 54.6779 20.993C54.3301 21.6018 54.0692 22.3845 54.0692 23.0802C54.0692 23.8629 54.3301 24.5586 54.7649 25.2543C55.1128 25.95 55.6346 26.4718 56.3303 26.8197C58.1565 27.9502 60.5915 27.4284 61.896 25.6891C62.0699 25.4282 62.2438 25.3413 62.5047 25.3413Z" fill="#00134A"/>
<path d="M68.7649 29.4286C67.8953 29.0808 67.1996 28.472 66.6778 27.7763C66.069 26.9067 65.7212 25.7761 65.8081 24.7326C65.8081 23.776 66.069 22.8194 66.5039 21.9497C66.9387 21.167 67.6344 20.5583 68.4171 20.1235C69.2867 19.6886 70.2433 19.4277 71.1999 19.5147C72.0696 19.5147 72.9392 19.6886 73.7219 20.1235C74.5046 20.5583 75.2003 21.167 75.6351 21.8627C75.896 22.2976 76.1569 22.8194 76.2439 23.2542C76.3308 23.776 76.4178 24.2977 76.4178 24.9065C76.4178 25.1674 76.3308 25.3413 76.2439 25.5152C76.0699 25.6892 75.896 25.7761 75.6351 25.7761H68.4171C68.504 26.3849 68.9389 26.9067 69.4606 27.1676C69.9824 27.4285 70.5912 27.6024 71.1999 27.6024C71.6348 27.6024 72.0696 27.5154 72.5044 27.4285C72.8523 27.2545 73.2001 27.0806 73.461 26.8197C73.548 26.7327 73.7219 26.6458 73.8958 26.6458C73.9828 26.6458 74.1567 26.7327 74.2437 26.7327L75.4612 27.4285C75.6351 27.5154 75.7221 27.6893 75.7221 27.8633C75.7221 27.9502 75.6351 28.1242 75.5481 28.2111C74.4176 29.4286 72.8523 30.1243 71.1999 30.1243C70.4173 29.9504 69.6346 29.7765 68.7649 29.4286ZM69.4606 22.4715C69.0258 22.8193 68.678 23.2542 68.678 23.8629H73.7219C73.7219 23.5151 73.548 23.1672 73.374 22.9063C73.2001 22.6454 72.8523 22.3845 72.5914 22.2106C72.2435 22.0367 71.8087 21.9497 71.3739 21.9497C70.5912 21.8627 69.9824 22.0367 69.4606 22.4715Z" fill="#00134A"/>
<path d="M86.6807 20.5578C87.3764 21.5145 87.7243 22.645 87.6373 23.7755V29.1673C87.6373 29.3412 87.5503 29.4282 87.4634 29.6021C87.3764 29.6891 87.2025 29.7761 87.0286 29.7761H85.2893C85.1153 29.7761 85.0284 29.6891 84.8544 29.6021C84.7675 29.5152 84.6805 29.3412 84.6805 29.1673V23.7755C84.6805 22.4711 84.0718 21.7753 82.7673 21.7753C82.2455 21.7753 81.7237 22.0362 81.3759 22.3841C80.9411 22.9928 80.7671 23.6886 80.8541 24.3843V29.1673C80.8541 29.4282 80.6802 29.6891 80.4193 29.6891H80.3323H78.767C78.593 29.6891 78.5061 29.6021 78.3321 29.5152C78.2452 29.4282 78.1582 29.2543 78.1582 29.0803V20.21C78.1582 19.9491 78.3321 19.6882 78.593 19.6882H78.68H80.4193C80.5932 19.6882 80.6802 19.7752 80.8541 19.8621C80.9411 19.9491 81.028 20.123 81.028 20.297V20.6448C81.3759 20.297 81.8107 20.0361 82.2455 19.8621C82.6803 19.6882 83.2021 19.6012 83.7239 19.6012C84.7675 19.3403 85.898 19.7752 86.6807 20.5578Z" fill="#00134A"/>
<path d="M93.2025 25.9497C93.2025 26.2975 93.2894 26.7323 93.4633 27.0802C93.7242 27.3411 94.0721 27.515 94.42 27.428H94.5939C94.9417 27.428 95.2026 27.602 95.2026 27.9498V29.1673C95.2026 29.3413 95.2026 29.4282 95.0287 29.6022C94.9417 29.6891 94.7678 29.7761 94.6808 29.7761C94.5069 29.7761 94.333 29.7761 93.9851 29.7761C93.3764 29.7761 92.6807 29.6891 92.0719 29.6022C91.6371 29.5152 91.2892 29.2543 90.9414 28.9064C90.6805 28.4716 90.5066 27.8629 90.5066 27.3411V21.9493H89.8109C89.55 21.9493 89.2891 21.7754 89.2891 21.5145V21.4275V20.1231C89.2891 19.9491 89.376 19.8622 89.463 19.6882C89.55 19.6013 89.7239 19.5143 89.8978 19.5143H90.5935V17.3402C90.5935 17.1663 90.5935 17.0793 90.7675 16.9054C90.8544 16.8184 91.0284 16.7314 91.2023 16.7314H92.7676C92.9416 16.7314 93.0285 16.8184 93.2025 16.9054C93.2894 16.9923 93.3764 17.1663 93.3764 17.3402V19.5143H94.8548C95.0287 19.5143 95.1157 19.5143 95.2896 19.6882C95.3766 19.7752 95.4635 19.9491 95.4635 20.1231V21.4275C95.4635 21.6014 95.4635 21.6884 95.2896 21.8623C95.2026 21.9493 95.0287 22.0363 94.8548 22.0363H93.3764V25.9497H93.2025Z" fill="#00134A"/>
<path d="M96.8555 25.6021V20.2103C96.8555 20.0364 96.9424 19.9494 97.0294 19.7755C97.1164 19.6885 97.2903 19.6016 97.4642 19.6016H99.1165C99.2905 19.6016 99.3774 19.6885 99.5514 19.7755C99.6383 19.8625 99.7253 20.0364 99.7253 20.2103V25.6021C99.5514 26.5587 100.247 27.4283 101.117 27.6023C101.291 27.6023 101.465 27.6023 101.639 27.6023C102.16 27.6023 102.682 27.3414 103.03 26.9935C103.465 26.3848 103.639 25.6891 103.552 24.9933V20.2103C103.552 20.0364 103.552 19.9494 103.726 19.7755C103.813 19.6885 103.987 19.6016 104.16 19.6016H105.813C105.987 19.6016 106.074 19.6885 106.248 19.7755C106.335 19.8625 106.422 20.0364 106.422 20.2103V29.0807C106.422 29.3416 106.248 29.6025 105.987 29.6025H105.9H104.247C104.074 29.6025 103.987 29.5155 103.813 29.4285C103.726 29.3416 103.639 29.1676 103.639 28.9937V28.6458C103.291 28.9937 102.856 29.2546 102.421 29.4285C101.986 29.6025 101.465 29.6894 100.943 29.6894C98.1599 29.9503 96.8555 28.4719 96.8555 25.6021Z" fill="#00134A"/>
<path d="M123.38 20.5578C124.162 21.4275 124.51 22.558 124.423 23.7755V29.1673C124.423 29.3412 124.336 29.4282 124.249 29.6021C124.162 29.6891 123.989 29.7761 123.815 29.7761H122.162C121.901 29.7761 121.641 29.6021 121.641 29.3412V29.2543V23.8625C121.727 23.3407 121.467 22.732 121.119 22.2971C120.684 21.9493 120.249 21.7753 119.727 21.7753C119.206 21.7753 118.684 21.9493 118.336 22.3841C117.901 22.9059 117.727 23.5146 117.814 24.1234V29.1673C117.814 29.3412 117.727 29.4282 117.64 29.6021C117.553 29.6891 117.379 29.7761 117.205 29.7761H115.553C115.379 29.7761 115.292 29.6891 115.118 29.6021C115.031 29.5152 114.944 29.3412 114.944 29.1673V23.7755C115.031 23.2537 114.77 22.645 114.423 22.2102C114.075 21.8623 113.553 21.6884 113.031 21.6884C112.509 21.6884 111.988 21.9493 111.64 22.2971C111.205 22.9059 111.031 23.6016 111.118 24.2973V29.0803C111.118 29.3412 110.944 29.6021 110.683 29.6021C110.683 29.6021 110.596 29.6021 110.509 29.6021H108.857C108.683 29.6021 108.596 29.5152 108.422 29.4282C108.335 29.3412 108.248 29.1673 108.248 28.9934V20.21C108.248 19.9491 108.422 19.6882 108.683 19.6882H108.77H110.335C110.509 19.6882 110.596 19.7752 110.77 19.8621C110.857 19.9491 110.944 20.123 110.944 20.297V20.6448C111.292 20.297 111.727 20.0361 112.248 19.8621C112.683 19.6882 113.118 19.6012 113.64 19.6012C114.857 19.5143 116.075 20.0361 116.858 20.9927C117.205 20.5578 117.727 20.21 118.249 19.9491C118.858 19.6882 119.466 19.6012 120.075 19.6012C121.467 19.3403 122.597 19.7752 123.38 20.5578Z" fill="#00134A"/>
<path d="M125.901 29.6024C125.814 29.5154 125.814 29.4284 125.814 29.3415C125.814 29.2545 125.814 29.1675 125.901 29.0806L132.511 16.6447C132.598 16.4708 132.772 16.3838 132.859 16.3838C133.032 16.3838 133.206 16.4708 133.206 16.6447L139.816 29.0806C139.903 29.1675 139.903 29.2545 139.903 29.3415C139.903 29.4284 139.816 29.5154 139.816 29.6024C139.729 29.6893 139.555 29.6893 139.468 29.6893H137.468C137.207 29.6893 136.946 29.5154 136.859 29.2545L135.989 27.6022H129.815L128.945 29.2545C128.858 29.5154 128.597 29.6893 128.336 29.6893H126.336C126.162 29.6893 125.988 29.6893 125.901 29.6024ZM134.598 25.1672L132.859 21.6886L131.119 25.1672H134.598Z" fill="#00134A"/>
<path d="M141.381 16.4708C141.468 16.3838 141.642 16.2969 141.816 16.2969H146.686C147.642 16.2969 148.599 16.4708 149.556 16.9056C151.904 18.1231 152.773 20.9929 151.556 23.341C151.556 23.4279 151.469 23.4279 151.469 23.5149C151.034 24.2106 150.425 24.8194 149.643 25.1672C148.686 25.602 147.729 25.776 146.686 25.776H144.164V29.0806C144.164 29.2545 144.077 29.3415 143.99 29.5154C143.903 29.6024 143.729 29.6894 143.555 29.6894H141.729C141.468 29.6894 141.207 29.5154 141.207 29.2545V29.1676V16.9056C141.207 16.7317 141.294 16.6447 141.381 16.4708ZM147.034 23.341C147.642 23.341 148.164 23.1671 148.599 22.7322C148.947 22.2974 149.208 21.7756 149.121 21.1669C149.121 20.819 149.034 20.3842 148.86 20.0363C148.686 19.6885 148.425 19.3406 148.077 19.1667C147.642 18.9058 147.208 18.8188 146.773 18.8188H144.077V23.341H147.034Z" fill="#00134A"/>
<path d="M153.469 16.4708C153.556 16.3838 153.73 16.2969 153.904 16.2969H158.774C159.73 16.2969 160.687 16.4708 161.643 16.9056C163.992 18.1231 164.861 20.9929 163.644 23.341C163.644 23.4279 163.557 23.4279 163.557 23.5149C163.122 24.2106 162.513 24.8194 161.73 25.1672C160.774 25.602 159.817 25.776 158.774 25.776H156.252V29.0806C156.252 29.2545 156.165 29.3415 156.078 29.5154C155.991 29.6024 155.817 29.6894 155.643 29.6894H153.817C153.556 29.6894 153.295 29.5154 153.295 29.2545V29.1676V16.9056C153.295 16.7317 153.382 16.6447 153.469 16.4708ZM159.122 23.341C159.73 23.341 160.252 23.1671 160.687 22.7322C161.035 22.2974 161.296 21.7756 161.209 21.1669C161.209 20.819 161.122 20.3842 160.948 20.0363C160.774 19.6885 160.513 19.3406 160.165 19.1667C159.73 18.9058 159.295 18.8188 158.861 18.8188H156.165V23.341H159.122Z" fill="#00134A"/>
</svg>
