<svg width="163" height="42" viewBox="0 0 163 42" fill="none" xmlns="http://www.w3.org/2000/svg">
<path d="M72.0427 15.6907C72.1665 15.6903 72.2892 15.7157 72.4027 15.7652L74.7369 16.6591C75.0845 16.7916 75.2584 16.9902 75.2584 17.2551C75.2475 17.4125 75.1915 17.5633 75.097 17.6896C74.176 19.0925 72.905 20.2309 71.4094 20.9923C69.8815 21.7798 68.1837 22.1803 66.4649 22.1587C64.7461 22.137 63.0589 21.6939 61.5513 20.8681C60.0172 20.0351 58.7318 18.8097 57.8265 17.3172C56.9334 15.8554 56.4609 14.1756 56.4609 12.4626C56.4609 10.7496 56.9334 9.06976 57.8265 7.60796C58.7346 6.11765 60.0193 4.8929 61.5513 4.05703C63.0474 3.22396 64.7275 2.77641 66.4398 2.75473C68.1522 2.73306 69.843 3.13794 71.3598 3.93287C72.8459 4.68927 74.1246 5.79747 75.0845 7.16099C75.1773 7.28826 75.2331 7.43861 75.2459 7.59555C75.2459 7.85628 75.0721 8.05493 74.7493 8.19151L72.4151 9.08545C72.2933 9.13626 72.1623 9.16161 72.0302 9.15995C71.8996 9.15768 71.7715 9.12373 71.6568 9.06102C71.5422 8.9983 71.4445 8.90869 71.3722 8.79989C70.7722 8.08024 70.0332 7.48904 69.1994 7.06166C68.4332 6.65631 67.5829 6.43525 66.7163 6.41604C65.6586 6.40943 64.6194 6.69285 63.7116 7.23549C62.7995 7.78371 62.0396 8.55215 61.5016 9.47034C60.9686 10.3729 60.6875 11.4019 60.6875 12.4501C60.6875 13.4984 60.9686 14.5274 61.5016 15.43C62.0326 16.3461 62.7891 17.1111 63.6992 17.6524C64.9537 18.374 66.4279 18.6144 67.8467 18.3288C69.2655 18.0433 70.5318 17.2512 71.4094 16.1004C71.4776 15.9838 71.5732 15.8856 71.6878 15.8142C71.8025 15.7428 71.9328 15.7004 72.0675 15.6907" fill="white"/>
<path d="M81.5902 21.4015C80.4365 20.9048 79.4344 20.1125 78.6849 19.1046C77.8075 17.8446 77.371 16.33 77.4433 14.7963C77.4135 13.443 77.7664 12.1089 78.4614 10.9474C79.1185 9.84407 80.074 8.94887 81.2177 8.36486C82.4082 7.75498 83.7291 7.44391 85.0666 7.4585C86.2994 7.4507 87.5165 7.73581 88.6176 8.29036C89.7084 8.84168 90.637 9.66752 91.3118 10.6866C91.7434 11.2863 92.0515 11.9658 92.2182 12.6856C92.3614 13.4384 92.428 14.2038 92.4168 14.9701C92.4316 15.2907 92.3351 15.6065 92.1437 15.864C92.0493 15.9828 91.928 16.0774 91.7898 16.14C91.6517 16.2026 91.5006 16.2314 91.349 16.2241H81.2177C81.2885 16.6341 81.4515 17.0227 81.6946 17.3604C81.9377 17.6981 82.2543 17.9761 82.6207 18.1734C83.3812 18.5905 84.2365 18.8043 85.1039 18.7942C85.678 18.8188 86.2512 18.7271 86.7889 18.5244C87.3266 18.3216 87.8177 18.0122 88.2327 17.6147C88.3949 17.4499 88.6107 17.3486 88.841 17.3291C89.0054 17.333 89.1651 17.3848 89.3004 17.4781L90.9642 18.459C91.0792 18.5041 91.1795 18.5802 91.254 18.6788C91.3285 18.7774 91.3742 18.8947 91.3863 19.0177C91.3651 19.2001 91.2918 19.3725 91.1752 19.5143C90.4136 20.3757 89.4711 21.0582 88.4152 21.5132C87.3592 21.9683 86.2158 22.1845 85.0666 22.1465C83.8563 22.1455 82.6595 21.8918 81.5529 21.4015H81.5902ZM82.4593 11.5806C82.1457 11.8107 81.8841 12.1044 81.6915 12.4424C81.499 12.7804 81.3799 13.1551 81.3419 13.5423H88.3941C88.3278 13.0932 88.1531 12.667 87.885 12.3007C87.5794 11.8841 87.185 11.5406 86.7303 11.295C86.2134 11.0399 85.643 10.9122 85.0666 10.9225C84.1458 10.8828 83.2376 11.1491 82.4841 11.6799" fill="white"/>
<path d="M107.339 8.96086C108.31 10.2491 108.778 11.847 108.655 13.4554V20.9918C108.667 21.0958 108.655 21.2011 108.621 21.2999C108.587 21.3987 108.53 21.4885 108.456 21.5625C108.382 21.6365 108.292 21.6928 108.194 21.7273C108.095 21.7618 107.99 21.7735 107.886 21.7616H105.502C105.4 21.7678 105.298 21.7534 105.202 21.7192C105.106 21.6851 105.018 21.632 104.943 21.563C104.871 21.4871 104.815 21.3974 104.779 21.2992C104.742 21.201 104.726 21.0964 104.732 20.9918V13.4554C104.732 11.5558 103.826 10.6122 102.025 10.6122C101.652 10.6042 101.282 10.6804 100.942 10.8352C100.603 10.9899 100.302 11.2193 100.064 11.5061C99.4782 12.3222 99.2171 13.3267 99.331 14.3245V20.9918C99.3365 21.0964 99.3206 21.201 99.2843 21.2992C99.248 21.3974 99.1921 21.4871 99.1199 21.563C99.045 21.632 98.9568 21.6851 98.8608 21.7192C98.7648 21.7534 98.6629 21.7678 98.5612 21.7616H96.2767C96.175 21.7678 96.0731 21.7534 95.9771 21.7192C95.8811 21.6851 95.793 21.632 95.718 21.563C95.6458 21.4871 95.5899 21.3974 95.5536 21.2992C95.5173 21.201 95.5014 21.0964 95.5069 20.9918V8.46423C95.5014 8.35968 95.5173 8.2551 95.5536 8.1569C95.5899 8.0587 95.6458 7.96894 95.718 7.8931C95.793 7.82411 95.8811 7.77095 95.9771 7.73681C96.0731 7.70268 96.175 7.68827 96.2767 7.69444H98.5612C98.6629 7.68827 98.7648 7.70268 98.8608 7.73681C98.9568 7.77095 99.045 7.82411 99.1199 7.8931C99.1921 7.96894 99.248 8.0587 99.2843 8.1569C99.3206 8.2551 99.3365 8.35968 99.331 8.46423V8.94844C99.8232 8.46414 100.411 8.08779 101.057 7.84343C101.704 7.58022 102.395 7.44123 103.093 7.43371C103.865 7.36735 104.643 7.46954 105.372 7.73322C106.1 7.9969 106.763 8.41578 107.314 8.96086" fill="white"/>
<path d="M117.174 16.5339C117.134 17.0821 117.255 17.63 117.521 18.1107C117.691 18.3069 117.907 18.4575 118.15 18.5486C118.393 18.6397 118.655 18.6684 118.912 18.6322H119.098C119.62 18.6322 119.893 18.8805 119.893 19.3771V21.0781C119.903 21.287 119.832 21.4918 119.694 21.6492C119.624 21.7246 119.539 21.7853 119.446 21.8279C119.352 21.8705 119.251 21.8942 119.148 21.8976H118.167C117.264 21.9231 116.362 21.827 115.485 21.612C114.87 21.4518 114.328 21.0887 113.946 20.5815C113.519 19.9316 113.318 19.1593 113.374 18.3839V10.8226H112.381C112.279 10.8271 112.176 10.8108 112.08 10.7745C111.984 10.7382 111.896 10.6828 111.822 10.6115C111.749 10.5394 111.692 10.4521 111.655 10.3555C111.619 10.259 111.604 10.1557 111.611 10.0528V8.22769C111.604 8.12481 111.619 8.02149 111.655 7.92498C111.692 7.82847 111.749 7.74109 111.822 7.66898C111.896 7.59776 111.984 7.54233 112.08 7.50604C112.176 7.46976 112.279 7.45338 112.381 7.45791H113.325V4.45327C113.317 4.35028 113.332 4.24691 113.368 4.15017C113.404 4.05343 113.461 3.96557 113.534 3.89256C113.607 3.81955 113.695 3.76309 113.791 3.72702C113.888 3.69095 113.992 3.6761 114.095 3.68349H116.354C116.457 3.6761 116.561 3.69095 116.657 3.72702C116.754 3.76309 116.842 3.81955 116.915 3.89256C116.988 3.96557 117.044 4.05343 117.08 4.15017C117.117 4.24691 117.131 4.35028 117.124 4.45327V7.45791H119.173C119.277 7.45381 119.381 7.47035 119.479 7.50657C119.577 7.54279 119.667 7.59798 119.744 7.66898C119.813 7.74396 119.866 7.83209 119.9 7.92809C119.934 8.02409 119.949 8.12599 119.942 8.22769V10.0528C119.949 10.1545 119.934 10.2564 119.9 10.3524C119.866 10.4484 119.813 10.5366 119.744 10.6115C119.667 10.6825 119.577 10.7377 119.479 10.774C119.381 10.8102 119.277 10.8267 119.173 10.8226H117.124L117.174 16.5339Z" fill="white"/>
<path d="M122.905 16.0256V8.57604C122.9 8.47149 122.916 8.36692 122.952 8.26872C122.988 8.17052 123.044 8.08076 123.116 8.00491C123.191 7.93592 123.28 7.88277 123.376 7.84863C123.472 7.8145 123.573 7.80009 123.675 7.80626H126.034C126.138 7.79437 126.243 7.8061 126.342 7.84058C126.441 7.87507 126.531 7.9314 126.605 8.0054C126.679 8.0794 126.735 8.16915 126.77 8.26795C126.804 8.36676 126.816 8.47207 126.804 8.57604V16.0256C126.75 16.4017 126.783 16.7852 126.901 17.1465C127.019 17.5078 127.218 17.8372 127.483 18.1095C127.748 18.3817 128.072 18.5895 128.43 18.7169C128.788 18.8442 129.17 18.8877 129.548 18.844C129.926 18.8543 130.302 18.7779 130.646 18.6209C130.99 18.4638 131.294 18.2301 131.534 17.9376C132.111 17.1321 132.363 16.1395 132.242 15.1565V8.57604C132.237 8.47149 132.252 8.36692 132.289 8.26872C132.325 8.17052 132.381 8.08076 132.453 8.00491C132.528 7.93592 132.616 7.88277 132.712 7.84863C132.808 7.8145 132.91 7.80009 133.012 7.80626H135.321C135.423 7.80009 135.525 7.8145 135.621 7.84863C135.717 7.88277 135.805 7.93592 135.88 8.00491C135.952 8.08076 136.008 8.17052 136.044 8.26872C136.081 8.36692 136.097 8.47149 136.091 8.57604V20.9919C136.097 21.0965 136.081 21.201 136.044 21.2992C136.008 21.3974 135.952 21.4872 135.88 21.563C135.805 21.632 135.717 21.6852 135.621 21.7193C135.525 21.7535 135.423 21.7679 135.321 21.7617H132.987C132.885 21.7679 132.783 21.7535 132.687 21.7193C132.591 21.6852 132.503 21.632 132.428 21.563C132.361 21.4852 132.309 21.3945 132.277 21.2964C132.245 21.1983 132.233 21.0947 132.242 20.9919V20.5574C131.772 21.0486 131.2 21.4302 130.566 21.6748C129.898 21.9397 129.186 22.0746 128.468 22.0721C124.784 22.0721 122.938 20.0649 122.93 16.0504" fill="white"/>
<path d="M160.801 8.99807C161.853 10.235 162.379 11.8352 162.266 13.4554V20.9918C162.274 21.0955 162.26 21.1998 162.226 21.2981C162.192 21.3963 162.138 21.4865 162.067 21.5629C161.992 21.6319 161.904 21.6851 161.808 21.7192C161.712 21.7533 161.61 21.7678 161.509 21.7616H159.174C159.07 21.7735 158.965 21.7617 158.866 21.7273C158.767 21.6928 158.678 21.6364 158.604 21.5624C158.53 21.4884 158.473 21.3987 158.439 21.2999C158.404 21.2011 158.393 21.0958 158.405 20.9918V13.4554C158.437 13.0662 158.388 12.6747 158.262 12.3051C158.136 11.9356 157.935 11.596 157.672 11.3074C157.119 10.8205 156.396 10.5708 155.661 10.6121C155.303 10.6057 154.948 10.6767 154.62 10.8203C154.292 10.9639 153.999 11.1766 153.761 11.444C153.206 12.149 152.924 13.0308 152.966 13.9272V20.9918C152.972 21.0963 152.956 21.2009 152.92 21.2991C152.883 21.3973 152.828 21.4871 152.755 21.5629C152.68 21.6319 152.592 21.6851 152.496 21.7192C152.4 21.7533 152.298 21.7678 152.197 21.7616H149.862C149.654 21.7719 149.449 21.7007 149.291 21.5629C149.221 21.4865 149.167 21.3963 149.133 21.2981C149.098 21.1998 149.085 21.0955 149.093 20.9918V13.4554C149.128 13.068 149.083 12.6775 148.962 12.308C148.84 11.9385 148.644 11.598 148.385 11.3074C148.114 11.0655 147.798 10.8796 147.455 10.7603C147.112 10.641 146.749 10.5906 146.386 10.6121C146.014 10.6026 145.644 10.6769 145.305 10.8295C144.965 10.9821 144.664 11.2091 144.424 11.4937C143.849 12.3198 143.581 13.3214 143.667 14.3245V21.0166C143.681 21.1211 143.671 21.2275 143.638 21.3275C143.604 21.4274 143.548 21.5182 143.473 21.5928C143.399 21.6674 143.308 21.7237 143.208 21.7573C143.108 21.7908 143.002 21.8008 142.897 21.7864H140.613C140.511 21.7926 140.409 21.7782 140.313 21.744C140.217 21.7099 140.129 21.6568 140.054 21.5878C139.982 21.5119 139.926 21.4222 139.89 21.324C139.853 21.2257 139.837 21.1212 139.843 21.0166V8.46419C139.837 8.35964 139.853 8.25507 139.89 8.15687C139.926 8.05867 139.982 7.9689 140.054 7.89306C140.129 7.82407 140.217 7.77091 140.313 7.73678C140.409 7.70265 140.511 7.68824 140.613 7.69441H142.897C143.001 7.68796 143.105 7.7022 143.203 7.73631C143.301 7.77042 143.391 7.82371 143.468 7.89306C143.539 7.96951 143.593 8.05968 143.627 8.15794C143.661 8.2562 143.675 8.36045 143.667 8.46419V8.97324C144.201 8.50632 144.809 8.13274 145.467 7.86823C146.075 7.60047 146.728 7.45291 147.392 7.43368C148.245 7.3813 149.098 7.52789 149.884 7.86187C150.671 8.19585 151.369 8.70809 151.924 9.35814C152.462 8.73573 153.138 8.24694 153.898 7.93031C154.711 7.59101 155.586 7.42199 156.468 7.43368C157.259 7.38078 158.052 7.49249 158.798 7.76175C159.544 8.03101 160.226 8.45198 160.801 8.99807Z" fill="white"/>
<path d="M57.7646 30.0206V33.3108H62.0977V34.4779H57.7646V37.706H62.0977V38.8855H56.4609V28.8535H62.0977V30.0206H57.7646Z" fill="white"/>
<path d="M73.3709 28.8535C74.7012 28.8535 75.977 29.382 76.9177 30.3227C77.8584 31.2634 78.3869 32.5392 78.3869 33.8695C78.3869 35.1999 77.8584 36.4757 76.9177 37.4164C75.977 38.3571 74.7012 38.8855 73.3709 38.8855H70.2793V28.8535H73.3709ZM71.583 30.0206V37.706H73.3709C73.8939 37.7358 74.4174 37.6584 74.9095 37.4788C75.4016 37.2991 75.8518 37.0209 76.2326 36.6611C76.6134 36.3014 76.9167 35.8677 77.124 35.3866C77.3314 34.9055 77.4383 34.3872 77.4383 33.8633C77.4383 33.3395 77.3314 32.8211 77.124 32.3401C76.9167 31.859 76.6134 31.4253 76.2326 31.0655C75.8518 30.7058 75.4016 30.4276 74.9095 30.2479C74.4174 30.0682 73.8939 29.9909 73.3709 30.0206H71.583Z" fill="white"/>
<path d="M86.1821 28.8535H87.4236V35.6326C87.4236 36.2121 87.6539 36.7679 88.0637 37.1777C88.4735 37.5875 89.0293 37.8178 89.6088 37.8178C90.1884 37.8178 90.7442 37.5875 91.154 37.1777C91.5638 36.7679 91.794 36.2121 91.794 35.6326V28.8535H93.0356V35.6326C92.9826 36.5203 92.5926 37.3542 91.9453 37.964C91.298 38.5738 90.4423 38.9134 89.553 38.9134C88.6637 38.9134 87.808 38.5738 87.1607 37.964C86.5134 37.3542 86.1233 36.5203 86.0703 35.6326L86.1821 28.8535Z" fill="white"/>
<path d="M112.605 30.0206H110.01V28.8535H116.516V30.0206H113.908V38.8855H112.605V30.0206Z" fill="white"/>
<path d="M125.12 30.0206V33.3108H129.453V34.4779H125.12V37.706H129.453V38.8855H123.816V28.8535H129.453V30.0206H125.12Z" fill="white"/>
<path d="M147.06 35.7574C146.758 36.7563 146.131 37.6259 145.278 38.2285C144.426 38.8311 143.397 39.1325 142.355 39.0849C141.004 39.0455 139.72 38.4869 138.771 37.5254C137.821 36.5639 137.279 35.2733 137.257 33.9222C137.234 32.571 137.733 31.2633 138.651 30.2708C139.568 29.2783 140.832 28.6776 142.181 28.5935C143.314 28.486 144.445 28.8098 145.35 29.5003C146.255 30.1908 146.865 31.1971 147.06 32.3182H145.682C145.528 31.5584 145.103 30.8804 144.486 30.41C143.87 29.9397 143.104 29.7089 142.33 29.7606C141.804 29.7549 141.282 29.8568 140.796 30.0601C140.311 30.2635 139.872 30.5639 139.507 30.943C139.142 31.322 138.858 31.7717 138.673 32.2644C138.488 32.7571 138.406 33.2824 138.431 33.8081C138.407 34.3511 138.495 34.8933 138.692 35.4001C138.888 35.9069 139.188 36.3671 139.573 36.7515C139.957 37.1358 140.417 37.4359 140.924 37.6324C141.431 37.8289 141.973 37.9177 142.516 37.8929C143.191 37.8949 143.85 37.6917 144.407 37.3103C144.963 36.9289 145.391 36.3874 145.632 35.7574H147.06Z" fill="white"/>
<path d="M160.726 34.4779H156.058V38.8855H154.754V28.8535H156.058V33.3108H160.726V28.8535H162.03V38.8855H160.726V34.4779Z" fill="white"/>
<path d="M15.0377 15.0265C15.7198 13.9981 16.6459 13.1545 17.7333 12.5709C18.8206 11.9874 20.0355 11.682 21.2696 11.682C22.5037 11.682 23.7186 11.9874 24.8059 12.5709C25.8933 13.1545 26.8194 13.9981 27.5015 15.0265L38.3576 33.9093C40.699 30.7442 42.1158 26.9913 42.45 23.0685C42.7842 19.1457 42.0228 15.2072 40.2505 11.6916C38.4783 8.17609 35.7648 5.22161 32.4124 3.15732C29.06 1.09303 25.2004 0 21.2634 0C17.3264 0 13.4667 1.09303 10.1143 3.15732C6.76191 5.22161 4.04844 8.17609 2.2762 11.6916C0.503961 15.2072 -0.257455 19.1457 0.0767701 23.0685C0.410995 26.9913 1.82774 30.7442 4.16917 33.9093L15.0377 15.0265Z" fill="white"/>
<path d="M36.1632 33.4469L26.5287 16.7578C25.9815 15.8619 25.2032 15.1299 24.2755 14.6386C23.3478 14.1473 22.3049 13.915 21.2564 13.9659C20.2092 13.9229 19.1692 14.1587 18.243 14.6492C17.3167 15.1397 16.5372 15.8674 15.9842 16.7578L6.34965 33.4469C5.9781 34.0869 5.73624 34.7938 5.63788 35.5272C5.53953 36.2607 5.5866 37.0063 5.77641 37.7216C6.15975 39.1661 7.10122 40.3992 8.39372 41.1496C9.68622 41.8999 11.2239 42.1061 12.6684 41.7228C14.1129 41.3395 15.346 40.398 16.0964 39.1055L21.2564 30.1564L26.4289 39.1055C26.791 39.7582 27.2793 40.3322 27.8656 40.7941C28.4518 41.256 29.1241 41.5966 29.8434 41.7959C30.5626 41.9952 31.3144 42.0493 32.0547 41.955C32.7951 41.8607 33.5093 41.6199 34.1556 41.2467C34.8019 40.8735 35.3674 40.3753 35.8192 39.7812C36.2709 39.1871 36.5998 38.5089 36.7867 37.7864C36.9736 37.0638 37.0147 36.3113 36.9077 35.5726C36.8006 34.834 36.5475 34.1241 36.1632 33.4843" fill="white"/>
<path d="M34.5397 30.6417C31.2367 24.9083 22.6865 27.8872 21.2656 30.1307L26.4257 39.1047C27.1847 40.3683 28.4097 41.2832 29.8368 41.6522C31.2639 42.0213 32.7789 41.8151 34.0554 41.078C35.3319 40.3408 36.2677 39.1318 36.6614 37.7113C37.055 36.2908 36.875 34.7725 36.16 33.4835L34.5397 30.6417Z" fill="white"/>
</svg>
